<?xml version="1.0" encoding="utf-8"?>
<!-- Generator: Adobe Illustrator 22.1.0, SVG Export Plug-In . SVG Version: 6.00 Build 0)  -->
<svg version="1.1" id="Layer_1" xmlns="http://www.w3.org/2000/svg" xmlns:xlink="http://www.w3.org/1999/xlink" x="0px" y="0px"
	 viewBox="0 0 32.7 26.5" style="enable-background:new 0 0 32.7 26.5;" xml:space="preserve">
<g>
	<path d="M0,22.2V7.6c0-2.9,1.5-4.4,4.4-4.4h3.1c1.1,0,1.4-0.2,2.1-0.9l1.1-1.2C11.4,0.4,12.1,0,13.5,0h5.5c1.4,0,2.1,0.4,2.8,1.2
		L23,2.4c0.6,0.7,1,0.9,2.1,0.9h3.2c2.9,0,4.4,1.5,4.4,4.4v14.5c0,2.9-1.5,4.4-4.4,4.4H4.4C1.5,26.5,0,25.1,0,22.2z M28.2,24.1
		c1.3,0,2.1-0.7,2.1-2.1V7.8c0-1.4-0.8-2.1-2.1-2.1h-3.8c-1.2,0-1.9-0.2-2.6-1l-1.1-1.2c-0.8-0.9-1.2-1.1-2.4-1.1h-4.1
		c-1.2,0-1.6,0.2-2.4,1.1l-1.1,1.2c-0.7,0.8-1.4,1-2.6,1H4.5c-1.3,0-2.1,0.7-2.1,2.1V22c0,1.4,0.8,2.1,2.1,2.1H28.2z M8.8,14.4
		c0-4.2,3.4-7.5,7.5-7.5c4.2,0,7.5,3.4,7.5,7.5c0,4.2-3.4,7.6-7.5,7.6S8.8,18.6,8.8,14.4z M21.7,14.4c0-2.9-2.4-5.3-5.3-5.3
		S11,11.5,11,14.4c0,3,2.4,5.3,5.3,5.3C19.3,19.7,21.7,17.4,21.7,14.4z M24.5,9.4c0-1,0.8-1.7,1.7-1.7S28,8.4,28,9.4
		c0,1-0.8,1.7-1.7,1.7S24.5,10.4,24.5,9.4z"/>
</g>
<g>
</g>
<g>
</g>
<g>
</g>
<g>
</g>
<g>
</g>
<g>
</g>
<g>
</g>
<g>
</g>
<g>
</g>
<g>
</g>
<g>
</g>
</svg>
