<?xml version="1.0" encoding="utf-8"?>
<!-- Generator: Adobe Illustrator 22.1.0, SVG Export Plug-In . SVG Version: 6.00 Build 0)  -->
<svg version="1.1" id="Layer_1" xmlns="http://www.w3.org/2000/svg" xmlns:xlink="http://www.w3.org/1999/xlink" x="0px" y="0px"
	 viewBox="0 0 22.9 23.4" style="enable-background:new 0 0 22.9 23.4;" xml:space="preserve">
<style type="text/css">
	.st0{fill:#0089F1;}
</style>
<g>
	<path class="st0" d="M0,19.7V6.5C0,4,1.2,2.8,3.7,2.8h11.9l-2,2H3.8C2.6,4.8,2,5.4,2,6.6v13c0,1.2,0.6,1.8,1.7,1.8h13.4
		c0.8,0,1.4-0.6,1.4-1.8V9l2-2v12.8c0,2.4-1.2,3.6-3.4,3.6H3.7C1.2,23.4,0,22.2,0,19.7z M8.1,14.3l1-2.2L19.3,2l1.6,1.6L10.8,13.8
		l-2.3,1C8.3,14.8,8,14.6,8.1,14.3z M20.1,1.2L21,0.3c0.4-0.4,1-0.4,1.4-0.1l0.3,0.3c0.4,0.4,0.4,1,0,1.4l-0.8,0.9L20.1,1.2z"/>
</g>
<g>
</g>
<g>
</g>
<g>
</g>
<g>
</g>
<g>
</g>
<g>
</g>
<g>
</g>
<g>
</g>
<g>
</g>
<g>
</g>
<g>
</g>
</svg>
