<?xml version="1.0" encoding="utf-8"?>
<!-- Generator: Adobe Illustrator 22.1.0, SVG Export Plug-In . SVG Version: 6.00 Build 0)  -->
<svg version="1.1" id="Layer_1" xmlns="http://www.w3.org/2000/svg" xmlns:xlink="http://www.w3.org/1999/xlink" x="0px" y="0px"
	 viewBox="0 0 23.7 23.7" style="enable-background:new 0 0 23.7 23.7;" xml:space="preserve">
<style type="text/css">
	.st0{fill:#0089F1;}
</style>
<g>
	<path class="st0" d="M0,11.8C0,5.4,5.4,0,11.8,0s11.8,5.4,11.8,11.8c0,6.5-5.4,11.8-11.8,11.8C5.4,23.7,0,18.3,0,11.8z M21.6,11.8
		c0-5.4-4.3-9.7-9.7-9.7s-9.7,4.3-9.7,9.7c0,5.4,4.3,9.7,9.7,9.7C17.2,21.6,21.6,17.2,21.6,11.8z M8.9,17.3c0-0.5,0.4-0.8,0.9-0.8
		h1.4v-5.1H10c-0.5,0-0.9-0.4-0.9-0.9c0-0.5,0.4-0.8,0.9-0.8h2.2c0.6,0,0.9,0.4,0.9,1.1v5.7h1.4c0.5,0,0.9,0.4,0.9,0.8
		c0,0.5-0.4,0.9-0.9,0.9H9.8C9.3,18.2,8.9,17.8,8.9,17.3z M10.2,6.3c0-0.9,0.7-1.5,1.5-1.5c0.9,0,1.5,0.7,1.5,1.5
		c0,0.8-0.7,1.5-1.5,1.5C10.9,7.8,10.2,7.1,10.2,6.3z"/>
</g>
<g>
</g>
<g>
</g>
<g>
</g>
<g>
</g>
<g>
</g>
<g>
</g>
<g>
</g>
<g>
</g>
<g>
</g>
<g>
</g>
<g>
</g>
</svg>
