<?xml version="1.0" encoding="utf-8"?>
<!-- Generator: Adobe Illustrator 22.1.0, SVG Export Plug-In . SVG Version: 6.00 Build 0)  -->
<svg version="1.1" id="Layer_1" xmlns="http://www.w3.org/2000/svg" xmlns:xlink="http://www.w3.org/1999/xlink" x="0px" y="0px"
	 viewBox="0 0 22 24" style="enable-background:new 0 0 22 24;" xml:space="preserve">
<style type="text/css">
	.st0{fill:#0089F1;}
</style>
<g>
	<path class="st0" d="M0,18.3c0-1.2,1.2-2.2,2.2-3.2c0.8-0.8,1-2.4,1.1-3.9c0.1-4.5,1.3-7.4,4.4-8.5C8,1.2,9.3,0,11,0s3,1.2,3.4,2.7
		c3.1,1.1,4.3,4,4.4,8.5c0.1,1.4,0.3,3.1,1.1,3.9c1,1,2.2,2.1,2.2,3.2c0,0.9-0.7,1.5-1.8,1.5h-4.8C15.3,22,13.5,24,11,24
		c-2.5,0-4.3-2-4.4-4.2H1.8C0.7,19.8,0,19.2,0,18.3z M19.6,17.9v-0.1c-0.2-0.3-0.9-1-1.5-1.7c-0.8-0.9-1.2-2.5-1.3-4.7
		c-0.1-4.9-1.6-6.5-3.5-7c-0.3-0.1-0.5-0.2-0.5-0.5c0-1.2-0.7-2-1.8-2s-1.7,0.8-1.8,2c0,0.3-0.2,0.4-0.5,0.5c-1.9,0.5-3.4,2.1-3.5,7
		c-0.1,2.2-0.5,3.8-1.3,4.7c-0.6,0.7-1.3,1.3-1.5,1.7v0.1H19.6z M13.4,19.8H8.6c0.1,1.5,1.1,2.5,2.4,2.5S13.4,21.3,13.4,19.8z"/>
</g>
<g>
</g>
<g>
</g>
<g>
</g>
<g>
</g>
<g>
</g>
<g>
</g>
<g>
</g>
<g>
</g>
<g>
</g>
<g>
</g>
<g>
</g>
</svg>
