<?xml version="1.0" encoding="utf-8"?>
<!-- Generator: Adobe Illustrator 22.1.0, SVG Export Plug-In . SVG Version: 6.00 Build 0)  -->
<svg version="1.1" id="Layer_1" xmlns="http://www.w3.org/2000/svg" xmlns:xlink="http://www.w3.org/1999/xlink" x="0px" y="0px"
	 viewBox="0 0 14 14" style="enable-background:new 0 0 14 14;" xml:space="preserve">
<style type="text/css">
	.st0{fill:#8E8E93;}
</style>
<title>Search</title>
<desc>Created with Sketch.</desc>
<g id="Symbols">
	<g id="Glyphs_x2F_Search">
		<path id="Search" class="st0" d="M13.7,12.6L9.9,8.7C10.6,7.8,11,6.7,11,5.5c0-3-2.5-5.5-5.5-5.5C4,0,2.6,0.6,1.6,1.6S0,4,0,5.5
			c0,3,2.5,5.5,5.5,5.5c1.2,0,2.3-0.4,3.2-1.1l0,0l3.8,3.8c0.2,0.2,0.5,0.3,0.8,0.2s0.5-0.3,0.6-0.6C14,13.1,14,12.8,13.7,12.6
			L13.7,12.6z M5.5,9.9c-2.4,0-4.4-2-4.4-4.4c0-1.2,0.5-2.3,1.3-3.1s1.9-1.3,3.1-1.3c2.4,0,4.4,2,4.4,4.4c0,1.2-0.5,2.3-1.3,3.1
			S6.7,9.9,5.5,9.9z"/>
	</g>
</g>
</svg>
